<?xml version="1.0" encoding="UTF-8" standalone="no"?>
<!-- Created with Inkscape (http://www.inkscape.org/) -->
<svg xmlns:dc="http://purl.org/dc/elements/1.1/" xmlns:cc="http://web.resource.org/cc/" xmlns:rdf="http://www.w3.org/1999/02/22-rdf-syntax-ns#" xmlns:svg="http://www.w3.org/2000/svg" xmlns="http://www.w3.org/2000/svg" xmlns:xlink="http://www.w3.org/1999/xlink" xmlns:sodipodi="http://sodipodi.sourceforge.net/DTD/sodipodi-0.dtd" xmlns:inkscape="http://www.inkscape.org/namespaces/inkscape" width="500" height="600" id="svg2" sodipodi:version="0.32" inkscape:version="0.45.1" sodipodi:docbase="C:\Arquivos de programas\Streamload\MediaMax XL\Downloads\Desenhos" sodipodi:docname="garrafao.svg" version="1.0" inkscape:output_extension="org.inkscape.output.svg.inkscape">
  <defs id="defs4">
    <linearGradient id="linearGradient5146">
      <stop id="stop5148" offset="0" style="stop-color:white;stop-opacity:0;"/>
      <stop id="stop5150" offset="0.60000002" style="stop-color:white;stop-opacity:0;"/>
      <stop id="stop5152" offset="1" style="stop-color:white;stop-opacity:1;"/>
    </linearGradient>
    <linearGradient inkscape:collect="always" id="linearGradient11739">
      <stop style="stop-color:white;stop-opacity:1;" offset="0" id="stop11741"/>
      <stop style="stop-color:white;stop-opacity:0;" offset="1" id="stop11743"/>
    </linearGradient>
    <linearGradient id="linearGradient11719">
      <stop style="stop-color:black;stop-opacity:0;" offset="0" id="stop11721"/>
      <stop style="stop-color:black;stop-opacity:0;" offset="0.60000002" id="stop11723"/>
      <stop style="stop-color:black;stop-opacity:1;" offset="1" id="stop11725"/>
    </linearGradient>
    <linearGradient id="linearGradient1400">
      <stop id="stop1401" offset="0.0000000" style="stop-color:#000000;stop-opacity:0.67843139;"/>
      <stop id="stop1403" offset="0.56999999" style="stop-color:#000000;stop-opacity:0.32941177;"/>
      <stop id="stop1402" offset="1.0000000" style="stop-color:#000000;stop-opacity:0.00000000;"/>
    </linearGradient>
    <linearGradient id="linearGradient899">
      <stop id="stop900" offset="0.0000000" style="stop-color:#ffffff;stop-opacity:0.0000000;"/>
      <stop id="stop901" offset="1.0000000" style="stop-color:#ffffff;stop-opacity:1.0000000;"/>
    </linearGradient>
    <linearGradient id="linearGradient6266" inkscape:collect="always">
      <stop id="stop6268" offset="0" style="stop-color:white;stop-opacity:1;"/>
      <stop id="stop6270" offset="1" style="stop-color:white;stop-opacity:0;"/>
    </linearGradient>
    <radialGradient inkscape:collect="always" xlink:href="#linearGradient11719" id="radialGradient21522" gradientUnits="userSpaceOnUse" gradientTransform="matrix(1.45179,0,0,3.576071,-163.844,-1116.797)" cx="387.81262" cy="434.73669" fx="387.81262" fy="434.73669" r="14.3125"/>
    <radialGradient inkscape:collect="always" xlink:href="#linearGradient11719" id="radialGradient21524" gradientUnits="userSpaceOnUse" gradientTransform="matrix(0,2.364998,-3.652646,0,1987.117,-479.3234)" cx="385.7511" cy="434.73676" fx="385.7511" fy="434.73676" r="14.3125"/>
    <radialGradient inkscape:collect="always" xlink:href="#linearGradient11719" id="radialGradient21526" gradientUnits="userSpaceOnUse" gradientTransform="matrix(0.44531,-0.119321,0.10148,0.378727,138.8277,349.1468)" cx="505.31256" cy="340.95706" fx="505.31256" fy="340.95706" r="17.921875"/>
    <radialGradient inkscape:collect="always" xlink:href="#linearGradient11719" id="radialGradient21528" gradientUnits="userSpaceOnUse" gradientTransform="matrix(0.547497,-0.146701,0.101479,0.378727,86.9593,363.0448)" cx="507.58319" cy="332.63242" fx="507.58319" fy="332.63242" r="17.921875"/>
    <radialGradient inkscape:collect="always" xlink:href="#linearGradient11719" id="radialGradient21530" gradientUnits="userSpaceOnUse" gradientTransform="matrix(-3.42568e-7,-0.56681,0.360662,0,278.647,702.262)" cx="504.93213" cy="332.63242" fx="504.93213" fy="332.63242" r="17.921875"/>
    <radialGradient inkscape:collect="always" xlink:href="#linearGradient11719" id="radialGradient21532" gradientUnits="userSpaceOnUse" gradientTransform="matrix(0.204952,-0.420772,0.46453,0.226266,140.2994,554.0785)" cx="508.92856" cy="327.40497" fx="508.92856" fy="327.40497" r="17.921875"/>
    <radialGradient inkscape:collect="always" xlink:href="#linearGradient1400" id="radialGradient21534" gradientUnits="userSpaceOnUse" gradientTransform="matrix(0,-0.143042,0.233064,0,321.3155,487.8697)" cx="508.64053" cy="331.66568" fx="508.64053" fy="331.66568" r="17.921875"/>
    <radialGradient inkscape:collect="always" xlink:href="#linearGradient11719" id="radialGradient21536" gradientUnits="userSpaceOnUse" gradientTransform="matrix(0,-0.250051,0.338816,1.941369e-7,288.5279,543.4248)" cx="506.72284" cy="326.56235" fx="506.72284" fy="326.56235" r="17.921875"/>
    <linearGradient inkscape:collect="always" xlink:href="#linearGradient1400" id="linearGradient21538" gradientUnits="userSpaceOnUse" gradientTransform="matrix(0.252433,0,0,0.252433,270.9745,332.5779)" x1="502.01923" y1="353.44644" x2="504.57285" y2="323.71451"/>
    <radialGradient inkscape:collect="always" xlink:href="#linearGradient11719" id="radialGradient21540" gradientUnits="userSpaceOnUse" gradientTransform="matrix(0,-0.242899,0.329126,1.885846e-7,291.8143,539.9908)" cx="521.02045" cy="324.50958" fx="521.02045" fy="324.50958" r="17.921875"/>
    <radialGradient inkscape:collect="always" xlink:href="#linearGradient11719" id="radialGradient21542" gradientUnits="userSpaceOnUse" gradientTransform="matrix(1.459771,0,0,2.845034,-166.6514,-772.8472)" cx="387.1875" cy="420.14362" fx="387.1875" fy="420.14362" r="4.1875"/>
    <radialGradient inkscape:collect="always" xlink:href="#linearGradient1400" id="radialGradient21544" gradientUnits="userSpaceOnUse" gradientTransform="matrix(1,0,0,0.272926,11.36599,316.1907)" cx="387.8125" cy="425.85062" fx="387.8125" fy="425.85062" r="14.3125"/>
    <radialGradient inkscape:collect="always" xlink:href="#linearGradient5146" id="radialGradient21546" gradientUnits="userSpaceOnUse" gradientTransform="matrix(1.487697,0,0,0.43318,-177.7688,246.3003)" cx="387.81244" cy="432.66562" fx="387.81244" fy="432.66562" r="14.3125"/>
    <radialGradient inkscape:collect="always" xlink:href="#linearGradient11719" id="radialGradient21548" gradientUnits="userSpaceOnUse" gradientTransform="matrix(1.609506e-3,2.492768,-4.571881,2.951931e-3,2386.122,-553.9035)" cx="385.7511" cy="434.73676" fx="385.7511" fy="434.73676" r="14.3125"/>
    <linearGradient inkscape:collect="always" xlink:href="#linearGradient11739" id="linearGradient21550" gradientUnits="userSpaceOnUse" x1="423.66223" y1="465.20163" x2="405.24866" y2="443.90115"/>
    <radialGradient inkscape:collect="always" xlink:href="#linearGradient11719" id="radialGradient21552" gradientUnits="userSpaceOnUse" gradientTransform="matrix(4.000266,0,0,3.652646,-1134.732,-1154.962)" cx="377.35767" cy="434.76099" fx="377.35767" fy="434.76099" r="14.3125"/>
    <linearGradient inkscape:collect="always" xlink:href="#linearGradient899" id="linearGradient21554" gradientUnits="userSpaceOnUse" gradientTransform="matrix(0.879958,0,0,1,42.73476,0.984993)" x1="409.27429" y1="432.30936" x2="365.30914" y2="426.76877"/>
    <linearGradient inkscape:collect="always" xlink:href="#linearGradient6266" id="linearGradient21556" gradientUnits="userSpaceOnUse" gradientTransform="matrix(0.752488,0,0,1,94.2166,0.984993)" x1="382.17712" y1="411.62451" x2="405.44757" y2="439.45056"/>
  </defs>
  <sodipodi:namedview id="base" pagecolor="#ffffff" bordercolor="#666666" borderopacity="1.0" inkscape:pageopacity="0.0" inkscape:pageshadow="2" inkscape:zoom="0.50000001" inkscape:cx="402.74123" inkscape:cy="464.61269" inkscape:document-units="px" inkscape:current-layer="layer1" inkscape:window-width="1024" inkscape:window-height="749" inkscape:window-x="220" inkscape:window-y="220" showguides="true" inkscape:guide-bbox="true" width="500px" height="600px" units="cm"/>
  <metadata id="metadata7">
    <rdf:RDF>
      <cc:Work rdf:about="">
        <dc:format>image/svg+xml</dc:format>
        <dc:type rdf:resource="http://purl.org/dc/dcmitype/StillImage"/>
      </cc:Work>
    </rdf:RDF>
  </metadata>
  <g inkscape:label="Layer 1" inkscape:groupmode="layer" id="layer1">
    <g transform="matrix(-0.134786,-0.603324,0.712838,0,115.9323,861.1654)" id="g4084"/>
    <g transform="matrix(-0.134786,-0.603324,0.712838,0,-474.53226,-459.553)" id="g8602"/>
    <g id="g6612" transform="matrix(12.124912,0,0,12.124912,-4588.0293,-4972.3021)">
      <path id="path6469" d="M 398.4375,412.40625 C 397.74522,412.40626 397.09726,412.5001 396.5,412.625 C 395.9117,412.74952 395.34539,412.90594 394.84375,413.15625 C 394.09598,413.52584 393.50206,414.06491 393.21875,414.75 C 393.18303,414.83638 393.23327,414.78726 393.21875,414.84375 C 393.21296,414.86634 393.19068,414.85765 393.1875,414.875 C 393.17507,414.90575 393.16479,414.9367 393.15625,414.96875 C 393.14484,414.98923 393.13458,415.00985 393.125,415.03125 C 393.11009,415.09352 393.1066,415.16082 393.09375,415.25 C 393.05942,415.48916 393.05472,415.54901 393.0625,415.4375 C 393.06229,415.44797 393.06229,415.45827 393.0625,415.46875 C 393.06145,415.50862 393.0625,415.53516 393.0625,415.53125 C 393.06049,415.58422 393.0625,415.57304 393.0625,415.5625 L 393.0625,417.25 L 393.0625,417.40625 L 393.0625,417.4375 C 393.0625,417.4331 393.06136,417.45991 393.0625,417.5 C 393.08515,417.90723 393.2435,418.30137 393.46875,418.625 C 393.41546,418.54754 393.42402,418.67586 393.59375,418.875 C 393.59382,418.8751 393.64832,418.90728 393.6875,418.9375 C 393.70256,418.94911 393.7019,418.95576 393.71875,418.96875 C 393.52125,419.6341 393.34375,420.31159 393.34375,421.09375 C 393.34373,421.65573 393.49172,422.14457 393.59375,422.65625 C 393.19995,422.71134 392.81425,422.74627 392.4375,422.8125 C 392.28191,422.83981 392.2097,422.85662 392.28125,422.84375 C 391.69355,422.94976 391.11623,423.05179 390.5625,423.1875 C 390.17568,423.28186 389.86339,423.38088 389.5625,423.46875 C 389.47616,423.49396 389.44913,423.50583 389.46875,423.5 C 389.36005,423.5323 389.27376,423.58644 389.25,423.59375 C 389.21502,423.60452 389.14761,423.61895 389.03125,423.65625 C 389.05636,423.64821 388.97799,423.65276 388.78125,423.71875 C 388.72972,423.73603 388.6693,423.75501 388.59375,423.78125 C 388.35729,423.86339 388.17512,423.9315 388,424 C 387.70642,424.11507 387.44784,424.28454 387.25,424.375 C 387.09449,424.44574 386.90204,424.49995 386.71875,424.59375 C 386.48366,424.71471 386.22516,424.83902 385.96875,425 C 385.94752,425.01332 385.9554,425.018 385.9375,425.03125 C 385.72088,425.16814 385.48592,425.31221 385.21875,425.53125 C 385.0735,425.65156 385.02358,425.7173 385.09375,425.65625 C 384.9989,425.73828 384.89247,425.82043 384.75,425.96875 C 384.73949,425.96855 384.72925,425.96855 384.71875,425.96875 C 384.61943,426.07414 384.64693,426.10183 384.625,426.15625 C 384.55219,426.22874 384.45862,426.27622 384.34375,426.4375 C 384.26014,426.55508 384.22222,426.63781 384.21875,426.65625 C 384.16229,426.73826 384.11921,426.81717 384.0625,426.9375 C 384.04285,426.97913 384.0751,426.96389 384.0625,427 C 383.91799,427.32423 383.78125,427.69277 383.78125,428.09375 L 383.78125,431.0625 C 383.78123,431.68237 384.05277,432.2522 384.4375,432.78125 L 384.4375,434.71875 C 384.07649,435.22763 383.78125,435.79535 383.78125,436.40625 L 383.78125,451.4375 C 383.78123,452.4425 384.37616,453.31046 385.21875,454 C 386.06135,454.68956 387.19635,455.24626 388.5625,455.71875 C 391.2948,456.66374 394.97923,457.24999 399.03125,457.25 C 399.50986,457.24999 399.9786,457.26832 400.5,457.25 C 404.20416,457.11989 407.51246,456.47038 409.96875,455.53125 C 411.19689,455.06168 412.21191,454.53994 412.96875,453.875 C 413.7256,453.21005 414.25,452.38091 414.25,451.4375 L 414.25,436.40625 C 414.25,435.75415 413.94286,435.16444 413.5625,434.65625 L 413.5625,432.8125 C 413.95799,432.29099 414.25,431.71727 414.25,431.0625 L 414.25,428.09375 C 414.25001,427.85478 414.20898,427.80298 414.1875,427.75 C 414.17896,427.71794 414.16869,427.68701 414.15625,427.65625 C 414.15622,427.64347 414.15748,427.64143 414.15625,427.625 C 414.15502,427.60857 414.15918,427.61381 414.15625,427.59375 C 414.15646,427.58327 414.15646,427.57298 414.15625,427.5625 C 414.15261,427.51998 414.17072,427.52625 414.15625,427.46875 C 414.04779,427.03747 413.83992,426.70107 413.625,426.40625 C 413.7839,426.62382 413.759,426.56956 413.5625,426.3125 C 413.33415,426.01363 413.07328,425.77104 412.78125,425.53125 C 412.74452,425.50111 412.74915,425.51917 412.71875,425.5 C 412.84015,425.59693 412.82431,425.55814 412.625,425.40625 C 412.55928,425.35622 412.45458,425.30754 412.375,425.25 C 412.37986,425.25582 412.32637,425.20361 412.3125,425.1875 C 412.28048,425.1651 412.25285,425.14762 412.21875,425.125 C 412.18761,425.09673 412.21426,425.0686 412.15625,425.03125 C 411.97844,424.91643 411.944,424.91471 412.03125,424.96875 C 411.89682,424.88546 411.73196,424.82639 411.59375,424.75 C 411.51366,424.7058 411.4928,424.69787 411.53125,424.71875 C 411.53109,424.71865 411.51322,424.69363 411.5,424.6875 C 411.51481,424.69547 411.43915,424.67677 411.40625,424.65625 C 411.37702,424.638 411.4084,424.62722 411.34375,424.59375 C 411.13576,424.48658 410.85626,424.3775 410.5625,424.25 C 410.38426,424.17263 410.25263,424.10098 410.15625,424.0625 C 410.27106,424.10845 410.22013,424.06226 410.0625,424 C 409.92635,423.94633 409.85435,423.94464 409.8125,423.9375 C 409.41589,423.78858 408.98811,423.61257 408.5,423.46875 C 407.95097,423.30697 407.35681,423.18846 406.78125,423.0625 C 406.76328,423.05754 406.77132,423.06717 406.75,423.0625 C 406.71682,423.05137 406.73226,423.04093 406.6875,423.03125 C 406.83614,423.06335 406.80625,423.04513 406.59375,423 C 405.96428,422.86636 405.36949,422.78351 404.71875,422.6875 C 404.8419,422.70569 404.8011,422.68607 404.59375,422.65625 C 404.15436,422.59325 403.68358,422.51992 403.21875,422.46875 C 403.30047,422.01307 403.4375,421.59191 403.4375,421.09375 C 403.43751,420.84125 403.42522,420.62548 403.40625,420.40625 C 403.36363,419.91368 403.21986,419.47792 403.09375,419.03125 C 403.1537,418.97014 403.22827,418.90732 403.28125,418.84375 C 403.29122,418.83177 403.38043,418.75282 403.5,418.5625 C 403.58115,418.43331 403.6387,418.28021 403.6875,418.15625 C 403.69664,418.13305 403.68047,418.14605 403.6875,418.125 C 403.62935,418.27731 403.64566,418.2602 403.71875,418.03125 C 403.77717,417.8446 403.84375,417.64305 403.84375,417.40625 L 403.84375,415.5 C 403.84375,415.3731 403.79452,415.33702 403.78125,415.28125 C 403.77967,415.26781 403.782,415.26115 403.78125,415.25 C 403.77763,415.22488 403.78389,415.20966 403.78125,415.1875 C 403.77179,415.16885 403.78597,415.13893 403.78125,415.15625 C 403.77611,415.11298 403.75847,415.06681 403.75,415.03125 C 403.76124,415.03597 403.7674,414.94318 403.6875,414.75 C 403.39175,414.03485 402.73807,413.52102 402,413.15625 C 401.49791,412.90512 400.96212,412.74942 400.375,412.625 C 399.78382,412.50139 399.12977,412.40625 398.4375,412.40625 z M 398.625,413.0625 C 401.11917,413.06251 403.15625,414.06545 403.15625,415.3125 L 403.15625,417.21875 C 403.15625,417.6967 402.85121,418.16664 402.34375,418.53125 C 402.60107,419.20323 402.74999,420.00032 402.75,420.875 C 402.75,421.64287 402.63997,422.35523 402.4375,422.96875 C 408.76106,423.4856 413.49999,425.48291 413.5,427.84375 L 413.5,430.78125 C 413.5,431.30904 413.24931,431.83537 412.8125,432.3125 L 412.8125,434.5625 C 413.24932,435.04067 413.49999,435.56598 413.5,436.09375 L 413.5,451.03125 C 413.5,453.78295 407.07808,456 399.1875,456 C 391.29693,455.99999 384.87497,453.78295 384.875,451.03125 L 384.875,436.09375 C 384.875,435.56639 385.09363,435.04034 385.53125,434.5625 L 385.53125,432.3125 C 385.09364,431.8357 384.87499,431.30862 384.875,430.78125 L 384.875,427.84375 C 384.875,425.63675 389.00891,423.75169 394.71875,423.09375 C 394.49076,422.45459 394.37499,421.69386 394.375,420.875 C 394.375,419.95986 394.53306,419.12639 394.8125,418.4375 C 394.3685,418.0888 394.09374,417.66244 394.09375,417.21875 L 394.09375,415.3125 C 394.09375,414.06542 396.13082,413.06252 398.625,413.0625 z " style="fill:#000000;fill-opacity:1;stroke:none;stroke-width:8;stroke-linecap:round;stroke-linejoin:round;stroke-miterlimit:4;stroke-dasharray:none;stroke-opacity:1"/>
      <path sodipodi:nodetypes="ccccscccccccscccccccscccc" id="path4201" d="M 398.61599,413.07499 C 396.12182,413.075 394.08474,414.07791 394.08474,415.32499 L 394.08474,417.23124 C 394.08474,417.67492 394.35949,418.10129 394.80349,418.44999 C 394.52406,419.13887 394.36599,419.97235 394.36599,420.88749 C 394.36599,421.70634 394.48175,422.46708 394.70974,423.10624 C 388.99991,423.76417 384.86599,425.64924 384.86599,427.85624 L 384.86599,430.79374 C 384.86599,431.3211 385.08463,431.84819 385.52224,432.32499 L 385.52224,434.57499 C 385.08463,435.05282 384.86599,435.57888 384.86599,436.10624 L 384.86599,451.04374 C 384.86597,453.79543 391.28792,456.01248 399.17849,456.01249 C 407.06908,456.01248 413.49099,453.79544 413.49099,451.04374 L 413.49099,436.10624 C 413.49099,435.57846 413.24031,435.05316 412.80349,434.57499 L 412.80349,432.32499 C 413.24031,431.84785 413.49099,431.32153 413.49099,430.79374 L 413.49099,427.85624 C 413.49099,425.49539 408.75205,423.49809 402.42849,422.98124 C 402.63097,422.36771 402.74099,421.65536 402.74099,420.88749 C 402.74099,420.0128 402.59206,419.21572 402.33474,418.54374 C 402.84221,418.17912 403.14724,417.70919 403.14724,417.23124 L 403.14724,415.32499 C 403.14725,414.07793 401.11016,413.075 398.61599,413.07499 z " style="fill:#87cefa;fill-opacity:0.5;stroke:none;stroke-width:8;stroke-linecap:round;stroke-linejoin:round;stroke-miterlimit:4;stroke-dasharray:none;stroke-opacity:1"/>
      <path sodipodi:nodetypes="ccccscccccccscccccccscccc" style="fill:url(#radialGradient21522);fill-opacity:1;stroke:none;stroke-width:8;stroke-linecap:round;stroke-linejoin:round;stroke-miterlimit:4;stroke-dasharray:none;stroke-opacity:1" d="M 398.61599,413.07499 C 396.12182,413.075 394.08474,414.07791 394.08474,415.32499 L 394.08474,417.23124 C 394.08474,417.67492 394.35949,418.10129 394.80349,418.44999 C 394.52406,419.13887 394.36599,419.97235 394.36599,420.88749 C 394.36599,421.70634 394.48175,422.46708 394.70974,423.10624 C 388.99991,423.76417 384.86599,425.64924 384.86599,427.85624 L 384.86599,430.79374 C 384.86599,431.3211 385.08463,431.84819 385.52224,432.32499 L 385.52224,434.57499 C 385.08463,435.05282 384.86599,435.57888 384.86599,436.10624 L 384.86599,451.04374 C 384.86597,453.79543 391.28792,456.01248 399.17849,456.01249 C 407.06908,456.01248 413.49099,453.79544 413.49099,451.04374 L 413.49099,436.10624 C 413.49099,435.57846 413.24031,435.05316 412.80349,434.57499 L 412.80349,432.32499 C 413.24031,431.84785 413.49099,431.32153 413.49099,430.79374 L 413.49099,427.85624 C 413.49099,425.49539 408.75205,423.49809 402.42849,422.98124 C 402.63097,422.36771 402.74099,421.65536 402.74099,420.88749 C 402.74099,420.0128 402.59206,419.21572 402.33474,418.54374 C 402.84221,418.17912 403.14724,417.70919 403.14724,417.23124 L 403.14724,415.32499 C 403.14725,414.07793 401.11016,413.075 398.61599,413.07499 z " id="path5103"/>
      <path sodipodi:nodetypes="ccccscccccccscccccccscccc" id="path5107" d="M 398.61599,413.07499 C 396.12182,413.075 394.08474,414.07791 394.08474,415.32499 L 394.08474,417.23124 C 394.08474,417.67492 394.35949,418.10129 394.80349,418.44999 C 394.52406,419.13887 394.36599,419.97235 394.36599,420.88749 C 394.36599,421.70634 394.48175,422.46708 394.70974,423.10624 C 388.99991,423.76417 384.86599,425.64924 384.86599,427.85624 L 384.86599,430.79374 C 384.86599,431.3211 385.08463,431.84819 385.52224,432.32499 L 385.52224,434.57499 C 385.08463,435.05282 384.86599,435.57888 384.86599,436.10624 L 384.86599,451.04374 C 384.86597,453.79543 391.28792,456.01248 399.17849,456.01249 C 407.06908,456.01248 413.49099,453.79544 413.49099,451.04374 L 413.49099,436.10624 C 413.49099,435.57846 413.24031,435.05316 412.80349,434.57499 L 412.80349,432.32499 C 413.24031,431.84785 413.49099,431.32153 413.49099,430.79374 L 413.49099,427.85624 C 413.49099,425.49539 408.75205,423.49809 402.42849,422.98124 C 402.63097,422.36771 402.74099,421.65536 402.74099,420.88749 C 402.74099,420.0128 402.59206,419.21572 402.33474,418.54374 C 402.84221,418.17912 403.14724,417.70919 403.14724,417.23124 L 403.14724,415.32499 C 403.14725,414.07793 401.11016,413.075 398.61599,413.07499 z " style="fill:url(#radialGradient21524);fill-opacity:1;stroke:none;stroke-width:8;stroke-linecap:round;stroke-linejoin:round;stroke-miterlimit:4;stroke-dasharray:none;stroke-opacity:1"/>
      <path style="fill:url(#radialGradient21526);fill-opacity:1;stroke:none;stroke-width:8;stroke-linecap:round;stroke-linejoin:round;stroke-miterlimit:4;stroke-dasharray:none;stroke-opacity:1" d="M 398.61867,413.06462 C 396.12451,413.06462 394.09066,414.08155 394.09066,415.32863 L 394.09066,417.23766 C 394.09065,418.48474 396.12451,419.49377 398.61867,419.49378 C 401.11284,419.49378 403.1388,418.48474 403.1388,417.23766 L 403.1388,415.32863 C 403.1388,414.08156 401.11284,413.06463 398.61867,413.06462 z M 398.61867,413.43539 C 400.25194,413.43538 401.57687,414.09391 401.57687,414.91054 C 401.57688,415.72717 400.25194,416.39358 398.61867,416.39358 C 396.9854,416.39359 395.66047,415.72717 395.66047,414.91054 C 395.66047,414.0939 396.9854,413.43539 398.61867,413.43539 z " id="path4044"/>
      <path id="path4050" d="M 398.61867,413.06462 C 396.12451,413.06462 394.09066,414.08155 394.09066,415.32863 L 394.09066,417.23766 C 394.09065,418.48474 396.12451,419.49377 398.61867,419.49378 C 401.11284,419.49378 403.1388,418.48474 403.1388,417.23766 L 403.1388,415.32863 C 403.1388,414.08156 401.11284,413.06463 398.61867,413.06462 z M 398.61867,413.43539 C 400.25194,413.43538 401.57687,414.09391 401.57687,414.91054 C 401.57688,415.72717 400.25194,416.39358 398.61867,416.39358 C 396.9854,416.39359 395.66047,415.72717 395.66047,414.91054 C 395.66047,414.0939 396.9854,413.43539 398.61867,413.43539 z " style="fill:url(#radialGradient21528);fill-opacity:1;stroke:none;stroke-width:8;stroke-linecap:round;stroke-linejoin:round;stroke-miterlimit:4;stroke-dasharray:none;stroke-opacity:1"/>
      <path style="fill:url(#radialGradient21530);fill-opacity:1;stroke:none;stroke-width:8;stroke-linecap:round;stroke-linejoin:round;stroke-miterlimit:4;stroke-dasharray:none;stroke-opacity:1" d="M 398.61867,413.06462 C 396.12451,413.06462 394.09066,414.08155 394.09066,415.32863 L 394.09066,417.23766 C 394.09065,418.48474 396.12451,419.49377 398.61867,419.49378 C 401.11284,419.49378 403.1388,418.48474 403.1388,417.23766 L 403.1388,415.32863 C 403.1388,414.08156 401.11284,413.06463 398.61867,413.06462 z M 398.61867,413.43539 C 400.25194,413.43538 401.57687,414.09391 401.57687,414.91054 C 401.57688,415.72717 400.25194,416.39358 398.61867,416.39358 C 396.9854,416.39359 395.66047,415.72717 395.66047,414.91054 C 395.66047,414.0939 396.9854,413.43539 398.61867,413.43539 z " id="path4052"/>
      <path id="path4054" d="M 398.61867,413.06462 C 396.12451,413.06462 394.09066,414.08155 394.09066,415.32863 L 394.09066,417.23766 C 394.09065,418.48474 396.12451,419.49377 398.61867,419.49378 C 401.11284,419.49378 403.1388,418.48474 403.1388,417.23766 L 403.1388,415.32863 C 403.1388,414.08156 401.11284,413.06463 398.61867,413.06462 z M 398.61867,413.43539 C 400.25194,413.43538 401.57687,414.09391 401.57687,414.91054 C 401.57688,415.72717 400.25194,416.39358 398.61867,416.39358 C 396.9854,416.39359 395.66047,415.72717 395.66047,414.91054 C 395.66047,414.0939 396.9854,413.43539 398.61867,413.43539 z " style="fill:url(#radialGradient21532);fill-opacity:1;stroke:none;stroke-width:8;stroke-linecap:round;stroke-linejoin:round;stroke-miterlimit:4;stroke-dasharray:none;stroke-opacity:1"/>
      <path style="fill:url(#radialGradient21534);fill-opacity:1;stroke:none;stroke-width:8;stroke-linecap:round;stroke-linejoin:round;stroke-miterlimit:4;stroke-dasharray:none;stroke-opacity:1" d="M 394.13799,415.02887 C 394.12483,415.08401 394.11446,415.13886 394.10643,415.19471 C 394.09807,415.25293 394.09066,415.31542 394.09066,415.37498 L 394.09066,417.04785 C 394.09065,418.18776 396.12451,419.11008 398.61867,419.11009 C 401.11284,419.11009 403.1388,418.18776 403.1388,417.04785 L 403.1388,415.37498 C 403.1388,415.31543 403.1314,415.25293 403.12303,415.19471 C 403.11499,415.13886 403.10458,415.08401 403.09147,415.02887 C 402.78463,416.27736 400.89922,417.23533 398.61867,417.23532 C 396.33806,417.23532 394.44587,416.27741 394.13799,415.02887 z " id="path4062"/>
      <path style="fill:url(#radialGradient21536);fill-opacity:1;stroke:none;stroke-width:8;stroke-linecap:round;stroke-linejoin:round;stroke-miterlimit:4;stroke-dasharray:none;stroke-opacity:1" d="M 398.61867,413.43539 C 400.25194,413.43538 401.57687,414.09391 401.57687,414.91054 C 401.57688,415.72717 400.25194,416.39358 398.61867,416.39358 C 396.9854,416.39359 395.66047,415.72717 395.66047,414.91054 C 395.66047,414.0939 396.9854,413.43539 398.61867,413.43539 z " id="path4056" sodipodi:nodetypes="csssc"/>
      <path style="fill:url(#linearGradient21538);fill-opacity:1;stroke:none;stroke-width:8;stroke-linecap:round;stroke-linejoin:round;stroke-miterlimit:4;stroke-dasharray:none;stroke-opacity:1" d="M 398.61867,413.43539 C 400.25194,413.43538 401.57687,414.09391 401.57687,414.91054 C 401.57688,415.72717 400.25194,416.39358 398.61867,416.39358 C 396.9854,416.39359 395.66047,415.72717 395.66047,414.91054 C 395.66047,414.0939 396.9854,413.43539 398.61867,413.43539 z " id="path4058" sodipodi:nodetypes="csssc"/>
      <path sodipodi:nodetypes="csssc" id="path4060" d="M 398.61867,413.43539 C 400.25194,413.43538 401.57687,414.09391 401.57687,414.91054 C 401.57688,415.72717 400.25194,416.39358 398.61867,416.39358 C 396.9854,416.39359 395.66047,415.72717 395.66047,414.91054 C 395.66047,414.0939 396.9854,413.43539 398.61867,413.43539 z " style="fill:url(#radialGradient21540);fill-opacity:1;stroke:none;stroke-width:8;stroke-linecap:round;stroke-linejoin:round;stroke-miterlimit:4;stroke-dasharray:none;stroke-opacity:1"/>
      <path id="path5111" d="M 394.80349,418.44999 C 394.52406,419.13887 394.36599,419.97235 394.36599,420.88749 C 394.36599,421.70634 394.48175,422.46708 394.70974,423.10624 L 402.42849,422.98124 C 402.63097,422.36771 402.74099,421.65536 402.74099,420.88749 C 402.74099,420.0128 402.59206,419.21572 402.33474,418.54374 L 402.30349,418.54374 C 401.48463,419.12197 400.14102,419.48124 398.61599,419.48124 C 397.00918,419.48123 395.60749,419.08141 394.80349,418.44999 z " style="fill:url(#radialGradient21542);fill-opacity:1;stroke:none;stroke-width:8;stroke-linecap:round;stroke-linejoin:round;stroke-miterlimit:4;stroke-dasharray:none;stroke-opacity:1"/>
      <path id="path5122" d="M 384.86599,430.51249 L 384.86599,430.79374 C 384.86599,431.3211 385.08463,431.84819 385.52224,432.32499 L 385.52224,434.57499 C 385.48577,434.61481 385.46192,434.65953 385.42849,434.69999 C 387.13087,436.78785 392.6391,438.32498 399.17849,438.32499 C 405.69785,438.32499 411.20795,436.80924 412.92849,434.73124 C 412.88621,434.67922 412.85008,434.62599 412.80349,434.57499 L 412.80349,432.32499 C 413.24031,431.84785 413.49099,431.32153 413.49099,430.79374 L 413.49099,430.51249 C 413.49099,433.26419 407.06908,435.48123 399.17849,435.48124 C 391.28792,435.48123 384.86597,433.26418 384.86599,430.51249 z " style="fill:url(#radialGradient21544);fill-opacity:1;stroke:none;stroke-width:8;stroke-linecap:round;stroke-linejoin:round;stroke-miterlimit:4;stroke-dasharray:none;stroke-opacity:1"/>
      <path style="fill:url(#radialGradient21546);fill-opacity:1;stroke:none;stroke-width:8;stroke-linecap:round;stroke-linejoin:round;stroke-miterlimit:4;stroke-dasharray:none;stroke-opacity:1" d="M 384.86599,430.51249 L 384.86599,430.79374 C 384.86599,431.3211 385.08463,431.84819 385.52224,432.32499 L 385.52224,434.57499 C 385.48577,434.61481 385.46192,434.65953 385.42849,434.69999 C 387.13087,436.78785 392.6391,438.32498 399.17849,438.32499 C 405.69785,438.32499 411.20795,436.80924 412.92849,434.73124 C 412.88621,434.67922 412.85008,434.62599 412.80349,434.57499 L 412.80349,432.32499 C 413.24031,431.84785 413.49099,431.32153 413.49099,430.79374 L 413.49099,430.51249 C 413.49099,433.26419 407.06908,435.48123 399.17849,435.48124 C 391.28792,435.48123 384.86597,433.26418 384.86599,430.51249 z " id="path5140"/>
      <path sodipodi:nodetypes="ccccscssssssscscccc" id="path5154" d="M 398.61599,413.07499 C 396.12182,413.075 394.08474,414.07791 394.08474,415.32499 L 394.08474,417.23124 C 394.08474,417.67492 394.35949,418.10129 394.80349,418.44999 C 394.52406,419.13887 394.36599,419.97235 394.36599,420.88749 C 394.36599,421.70634 394.48175,422.46708 394.70974,423.10624 C 389.35677,423.72305 385.40357,425.42197 384.92849,427.44999 C 384.92611,427.46015 384.93069,427.47106 384.92849,427.48124 C 384.93379,427.50192 384.92246,427.52314 384.92849,427.54374 C 385.66291,430.05463 391.78108,432.01248 399.17849,432.01249 C 406.57592,432.01248 412.69406,430.05464 413.42849,427.54374 C 413.43452,427.52314 413.42319,427.50192 413.42849,427.48124 C 413.42411,427.46095 413.43357,427.43896 413.42849,427.41874 C 412.8847,425.25214 408.35683,423.46579 402.42849,422.98124 C 402.63097,422.36771 402.74099,421.65536 402.74099,420.88749 C 402.74099,420.0128 402.59206,419.21572 402.33474,418.54374 C 402.84221,418.17912 403.14724,417.70919 403.14724,417.23124 L 403.14724,415.32499 C 403.14725,414.07793 401.11016,413.075 398.61599,413.07499 z " style="fill:url(#radialGradient21548);fill-opacity:1;stroke:none;stroke-width:8;stroke-linecap:round;stroke-linejoin:round;stroke-miterlimit:4;stroke-dasharray:none;stroke-opacity:1"/>
      <path transform="matrix(0.963936,0,0,1,14.39622,0)" d="M 398.625,413.71875 C 397.46443,413.71876 396.42275,413.96385 395.71875,414.3125 C 395.01475,414.66115 394.75,415.04045 394.75,415.3125 L 394.75,417.21875 C 394.75,417.39593 394.87403,417.66677 395.21875,417.9375 C 395.44057,418.11831 395.51688,418.42357 395.40625,418.6875 C 395.16311,419.2869 395.03125,420.03419 395.03125,420.875 C 395.03124,421.63301 395.11573,422.32337 395.3125,422.875 C 395.38495,423.06195 395.36643,423.27195 395.26237,423.44334 C 395.15832,423.61472 394.98054,423.72803 394.78125,423.75 C 391.97838,424.07297 389.58802,424.68526 387.9375,425.46875 C 387.11224,425.86049 386.46087,426.30317 386.0625,426.71875 C 385.66413,427.13433 385.53125,427.49352 385.53125,427.84375 L 385.53125,430.78125 C 385.53124,431.13018 385.65021,431.49389 386,431.875 C 386.11594,431.99163 386.183,432.14811 386.1875,432.3125 L 386.1875,434.5625 C 386.183,434.72689 386.11594,434.88337 386,435 C 385.64943,435.38279 385.53125,435.74481 385.53125,436.09375 L 385.53125,451.03125 C 385.53125,451.46808 385.77016,451.94714 386.40625,452.46875 C 387.04234,452.99036 388.03337,453.50503 389.28125,453.9375 C 391.777,454.80243 395.30267,455.34375 399.1875,455.34375 C 403.07233,455.34375 406.598,454.80244 409.09375,453.9375 C 410.34162,453.50503 411.33266,452.99036 411.96875,452.46875 C 412.60484,451.94714 412.84375,451.46808 412.84375,451.03125 L 412.84375,436.09375 C 412.84374,435.77037 412.70473,435.39515 412.34375,435 C 412.22781,434.88337 412.16075,434.72689 412.15625,434.5625 L 412.15625,432.3125 C 412.16075,432.14811 412.22781,431.99163 412.34375,431.875 C 412.70396,431.48154 412.84375,431.10463 412.84375,430.78125 L 412.84375,427.84375 C 412.84375,427.4695 412.67992,427.07279 412.21875,426.625 C 411.75758,426.17721 411.03309,425.72104 410.09375,425.3125 C 408.21506,424.49543 405.48254,423.87899 402.375,423.625 C 402.17787,423.60929 401.9988,423.5041 401.88911,423.33955 C 401.77941,423.17501 401.75118,422.96926 401.8125,422.78125 C 401.99018,422.24285 402.09375,421.5812 402.09375,420.875 C 402.09374,420.07359 401.9761,419.34045 401.75,418.75 C 401.64621,418.47924 401.73568,418.17251 401.96875,418 C 402.3623,417.71723 402.5,417.42203 402.5,417.21875 L 402.5,415.3125 C 402.5,415.04047 402.23525,414.66115 401.53125,414.3125 C 400.82725,413.96385 399.78556,413.71875 398.625,413.71875 z " id="path6608" style="fill:url(#linearGradient21550);fill-opacity:1;stroke:none;stroke-width:8;stroke-linecap:round;stroke-linejoin:round;stroke-miterlimit:4;stroke-dasharray:none;stroke-opacity:1" inkscape:original="M 398.625 413.0625 C 396.13082 413.06252 394.09375 414.06542 394.09375 415.3125 L 394.09375 417.21875 C 394.09374 417.66244 394.3685 418.0888 394.8125 418.4375 C 394.53306 419.12639 394.375 419.95986 394.375 420.875 C 394.37499 421.69386 394.49076 422.45459 394.71875 423.09375 C 389.00891 423.75169 384.875 425.63675 384.875 427.84375 L 384.875 430.78125 C 384.87499 431.30862 385.09364 431.8357 385.53125 432.3125 L 385.53125 434.5625 C 385.09363 435.04034 384.875 435.56639 384.875 436.09375 L 384.875 451.03125 C 384.87497 453.78295 391.29693 455.99999 399.1875 456 C 407.07808 456 413.5 453.78295 413.5 451.03125 L 413.5 436.09375 C 413.49999 435.56598 413.24932 435.04067 412.8125 434.5625 L 412.8125 432.3125 C 413.24931 431.83537 413.5 431.30904 413.5 430.78125 L 413.5 427.84375 C 413.49999 425.48291 408.76106 423.4856 402.4375 422.96875 C 402.63997 422.35523 402.75 421.64287 402.75 420.875 C 402.74999 420.00032 402.60107 419.20323 402.34375 418.53125 C 402.85121 418.16664 403.15625 417.6967 403.15625 417.21875 L 403.15625 415.3125 C 403.15625 414.06545 401.11917 413.06251 398.625 413.0625 z " inkscape:radius="-0.64553654" sodipodi:type="inkscape:offset"/>
      <path sodipodi:nodetypes="ccccscccccccscccccccscccc" style="fill:url(#radialGradient21552);fill-opacity:1;stroke:none;stroke-width:8;stroke-linecap:round;stroke-linejoin:round;stroke-miterlimit:4;stroke-dasharray:none;stroke-opacity:1" d="M 398.61599,413.07499 C 396.12182,413.075 394.08474,414.07791 394.08474,415.32499 L 394.08474,417.23124 C 394.08474,417.67492 394.35949,418.10129 394.80349,418.44999 C 394.52406,419.13887 394.36599,419.97235 394.36599,420.88749 C 394.36599,421.70634 394.48175,422.46708 394.70974,423.10624 C 388.99991,423.76417 384.86599,425.64924 384.86599,427.85624 L 384.86599,430.79374 C 384.86599,431.3211 385.08463,431.84819 385.52224,432.32499 L 385.52224,434.57499 C 385.08463,435.05282 384.86599,435.57888 384.86599,436.10624 L 384.86599,451.04374 C 384.86597,453.79543 391.28792,456.01248 399.17849,456.01249 C 407.06908,456.01248 413.49099,453.79544 413.49099,451.04374 L 413.49099,436.10624 C 413.49099,435.57846 413.24031,435.05316 412.80349,434.57499 L 412.80349,432.32499 C 413.24031,431.84785 413.49099,431.32153 413.49099,430.79374 L 413.49099,427.85624 C 413.49099,425.49539 408.75205,423.49809 402.42849,422.98124 C 402.63097,422.36771 402.74099,421.65536 402.74099,420.88749 C 402.74099,420.0128 402.59206,419.21572 402.33474,418.54374 C 402.84221,418.17912 403.14724,417.70919 403.14724,417.23124 L 403.14724,415.32499 C 403.14725,414.07793 401.11016,413.075 398.61599,413.07499 z " id="path6038"/>
      <path sodipodi:nodetypes="csccccccccccccccscc" style="fill:url(#linearGradient21554);fill-opacity:1;stroke:none;stroke-width:8;stroke-linecap:round;stroke-linejoin:round;stroke-miterlimit:4;stroke-dasharray:none;stroke-opacity:1" d="M 397.4214,419.14124 C 397.15126,419.81234 396.97278,420.59776 396.97278,421.48499 C 396.97277,422.28974 397.0921,423.04432 397.31788,423.67249 C 391.66345,424.3191 387.58629,426.15971 387.58629,428.32874 L 387.58629,431.23499 C 387.58629,431.75327 387.77409,432.26639 388.20745,432.73499 L 388.20745,434.95374 C 387.77409,435.42335 387.58629,435.93545 387.58629,436.45374 L 387.58629,451.82874 C 388.74281,452.36273 390.22207,452.84681 391.93444,453.20374 L 391.93444,436.45374 C 391.93444,435.93545 392.08815,435.42335 392.41757,434.95374 L 392.41757,432.73499 C 392.08815,432.26639 391.93444,431.75327 391.93444,431.23499 L 391.93444,428.32874 C 391.93444,426.15971 395.02102,424.3191 399.3194,423.67249 C 399.14777,423.04432 399.07784,422.28974 399.07784,421.48499 C 399.07784,420.72643 399.17088,420.05642 399.3194,419.45374 C 398.63166,419.40819 397.98923,419.29949 397.4214,419.14124 z " id="path6260"/>
      <path id="path6232" d="M 396.83428,419.14124 C 396.65021,419.81234 396.52858,420.59776 396.52858,421.48499 C 396.52857,422.28974 396.60989,423.04432 396.76374,423.67249 C 392.91069,424.3191 390.13243,426.15971 390.13243,428.32874 L 390.13243,431.23499 C 390.13243,431.75327 390.26042,432.26639 390.55571,432.73499 L 390.55571,434.95374 C 390.26042,435.42335 390.13243,435.93545 390.13243,436.45374 L 390.13243,447.82874 C 390.92052,448.36273 391.92851,448.84681 393.09535,449.20374 L 393.09535,436.45374 C 393.09535,435.93545 393.2001,435.42335 393.42457,434.95374 L 393.42457,432.73499 C 393.2001,432.26639 393.09535,431.75327 393.09535,431.23499 L 393.09535,428.32874 C 393.09535,426.15971 395.19862,424.3191 398.12762,423.67249 C 398.01067,423.04432 397.96301,422.28974 397.96301,421.48499 C 397.96301,420.72643 398.02641,420.05642 398.12762,419.45374 C 397.65898,419.40819 397.22121,419.29949 396.83428,419.14124 z " style="fill:url(#linearGradient21556);fill-opacity:1;stroke:none;stroke-width:8;stroke-linecap:round;stroke-linejoin:round;stroke-miterlimit:4;stroke-dasharray:none;stroke-opacity:1"/>
    </g>
  </g>
</svg>