<?xml version="1.0" encoding="UTF-8" standalone="no"?>
<!-- Created with Inkscape (http://www.inkscape.org/) -->
<svg xmlns:dc="http://purl.org/dc/elements/1.1/" xmlns:cc="http://web.resource.org/cc/" xmlns:rdf="http://www.w3.org/1999/02/22-rdf-syntax-ns#" xmlns:svg="http://www.w3.org/2000/svg" xmlns="http://www.w3.org/2000/svg" xmlns:xlink="http://www.w3.org/1999/xlink" xmlns:sodipodi="http://sodipodi.sourceforge.net/DTD/sodipodi-0.dtd" xmlns:inkscape="http://www.inkscape.org/namespaces/inkscape" width="542.52472" height="859.9007" id="svg2" inkscape:label="Pozad  " sodipodi:version="0.32" inkscape:version="0.44.1" sodipodi:docbase="C:\Documents and Settings\Im\Plocha\12.Elektrospotrebice" sodipodi:docname="vysavac.svg" version="1.0">
  <defs id="defs3">
    <linearGradient id="linearGradient12992">
      <stop style="stop-color:#eae7de;stop-opacity:1;" offset="0" id="stop12994"/>
      <stop id="stop13000" offset="0.94827586" style="stop-color:#eae7de;stop-opacity:0.49803922;"/>
      <stop style="stop-color:#eae7de;stop-opacity:0;" offset="1" id="stop12996"/>
    </linearGradient>
    <linearGradient id="linearGradient12956">
      <stop style="stop-color:#e0e3ec;stop-opacity:1;" offset="0" id="stop12958"/>
      <stop id="stop12964" offset="0.67241377" style="stop-color:#e0e3ec;stop-opacity:0.49803922;"/>
      <stop style="stop-color:#e0e3ec;stop-opacity:0;" offset="1" id="stop12960"/>
    </linearGradient>
    <linearGradient inkscape:collect="always" id="linearGradient11123">
      <stop style="stop-color:#b8b8b7;stop-opacity:1;" offset="0" id="stop11125"/>
      <stop style="stop-color:#b8b8b7;stop-opacity:0;" offset="1" id="stop11127"/>
    </linearGradient>
    <linearGradient inkscape:collect="always" id="linearGradient8229">
      <stop style="stop-color:#374079;stop-opacity:1;" offset="0" id="stop8231"/>
      <stop style="stop-color:#374079;stop-opacity:0;" offset="1" id="stop8233"/>
    </linearGradient>
    <linearGradient inkscape:collect="always" id="linearGradient7326">
      <stop style="stop-color:#cacaca;stop-opacity:1;" offset="0" id="stop7328"/>
      <stop style="stop-color:#cacaca;stop-opacity:0;" offset="1" id="stop7330"/>
    </linearGradient>
    <linearGradient inkscape:collect="always" xlink:href="#linearGradient7326" id="linearGradient13083" gradientUnits="userSpaceOnUse" gradientTransform="translate(318.8616,113.2283)" x1="104.8714" y1="675.61987" x2="273.05164" y2="675.61987"/>
    <linearGradient inkscape:collect="always" xlink:href="#linearGradient8229" id="linearGradient13085" gradientUnits="userSpaceOnUse" gradientTransform="translate(-125,95.71429)" x1="708.10822" y1="747.81604" x2="779.81885" y2="747.81604"/>
    <linearGradient inkscape:collect="always" xlink:href="#linearGradient11123" id="linearGradient13087" gradientUnits="userSpaceOnUse" gradientTransform="translate(0,0.252538)" x1="436.64352" y1="564.20593" x2="483.35291" y2="564.20593"/>
    <linearGradient inkscape:collect="always" xlink:href="#linearGradient12956" id="linearGradient13089" gradientUnits="userSpaceOnUse" gradientTransform="translate(0.505077,-0.505082)" x1="543.07141" y1="263.34433" x2="569.60712" y2="263.34433"/>
    <linearGradient inkscape:collect="always" xlink:href="#linearGradient12992" id="linearGradient13091" gradientUnits="userSpaceOnUse" gradientTransform="translate(-1.428572,0.357144)" x1="297.35715" y1="589.95148" x2="523.35712" y2="589.95148"/>
  </defs>
  <sodipodi:namedview id="base" pagecolor="#ffffff" bordercolor="#666666" borderopacity="1.0" inkscape:pageopacity="0.0" inkscape:pageshadow="2" inkscape:zoom="0.35" inkscape:cx="248.54975" inkscape:cy="437.78809" inkscape:document-units="px" inkscape:current-layer="layer1" inkscape:window-width="1024" inkscape:window-height="712" inkscape:window-x="-4" inkscape:window-y="-4"/>
  <metadata id="metadata6">
    <rdf:RDF>
      <cc:Work rdf:about="">
        <dc:format>image/svg+xml</dc:format>
        <dc:type rdf:resource="http://purl.org/dc/dcmitype/StillImage"/>
        <cc:license rdf:resource="http://web.resource.org/cc/PublicDomain"/>
        <dc:title>vysavac</dc:title>
        <dc:creator>
          <cc:Agent>
            <dc:title/>
          </cc:Agent>
        </dc:creator>
        <dc:publisher>
          <cc:Agent>
            <dc:title>ZS a MS Machovo nam.</dc:title>
          </cc:Agent>
        </dc:publisher>
        <dc:language>cz</dc:language>
        <dc:subject>
          <rdf:Bag>
            <rdf:li>vysavac</rdf:li>
            <rdf:li>vacuum</rdf:li>
          </rdf:Bag>
        </dc:subject>
      </cc:Work>
      <cc:License rdf:about="http://web.resource.org/cc/PublicDomain">
        <cc:permits rdf:resource="http://web.resource.org/cc/Reproduction"/>
        <cc:permits rdf:resource="http://web.resource.org/cc/Distribution"/>
        <cc:permits rdf:resource="http://web.resource.org/cc/DerivativeWorks"/>
      </cc:License>
    </rdf:RDF>
  </metadata>
  <g inkscape:label="Vrstva 1" inkscape:groupmode="layer" id="layer1" transform="translate(-51.09338,-66.86218)">
    <g id="g13093" transform="translate(-517.1429,-28.57143)" inkscape:export-filename="/media/KINGSTON/inkscape/9.c/Tomas Krauskopf/vyrobky inscapeu/elektrospotrebice/vysavac.png" inkscape:export-xdpi="90" inkscape:export-ydpi="90">
      <g transform="translate(445.7143,-42.85714)" id="g13008">
        <g id="g12030">
          <path id="path1977" d="M 530,655.21933 L 545,657.36218 L 567.85714,665.21933 L 572.85714,665.21933 L 561.42857,677.36218 L 542.14285,685.21933 L 525,687.36218 L 493.57142,687.36218 L 475.71428,685.93361 L 468.57142,680.93361 L 470.71428,669.50504 L 490,660.93361 L 530,655.21933 z " style="fill:#8b8d8c;fill-opacity:1;fill-rule:evenodd;stroke:black;stroke-width:1px;stroke-linecap:butt;stroke-linejoin:miter;stroke-opacity:1"/>
          <path id="path1979" d="M 468.70334,681.40086 L 464.66273,693.27016 L 464.41019,702.10899 L 465.42035,715.49351 L 470.21857,728.62549 L 479.05741,740.24225 L 493.19954,746.05063 L 505.57391,746.30316 L 524.0092,738.22194 L 538.65641,725.84757 L 551.28331,709.4326 L 563.65768,687.20924 L 571.48636,672.56203 L 572.74906,665.23842 L 561.63738,676.85518 L 543.20209,685.18893 L 525.01935,687.46178 L 493.70462,687.71432 L 475.52187,685.94655 L 468.70334,681.40086 z " style="fill:#172059;fill-opacity:1;fill-rule:evenodd;stroke:black;stroke-width:1px;stroke-linecap:butt;stroke-linejoin:miter;stroke-opacity:1"/>
          <path style="fill:white;fill-opacity:1;fill-rule:evenodd;stroke:black;stroke-width:1px;stroke-linecap:butt;stroke-linejoin:miter;stroke-opacity:1" d="M 572.24397,664.98588 L 570.60247,671.80441 L 551.03077,709.30633 L 537.39371,726.10011 L 523.37784,738.09567 L 504.31121,746.42943 L 492.69446,746.30316 L 478.17352,739.98971 L 468.95587,728.62549 L 464.41019,715.24097 L 463.40004,701.85645 L 463.77884,693.01762 L 467.94572,681.14832 L 469.71349,669.65784 L 459.8645,675.71875 L 449.13163,690.87104 L 442.43937,705.26572 L 436.37845,725.59504 L 430.065,765.7486 L 427.79216,793.02272 L 424.00409,833.17628 L 424.50916,859.44025 L 427.03454,869.79431 L 433.85307,882.67376 L 447.74267,897.82605 L 462.89496,906.91742 L 478.80486,911.96818 L 501.53329,911.71564 L 522.24142,905.14965 L 538.40386,895.04813 L 549.76808,882.9263 L 559.61706,863.22832 L 561.88991,831.91359 L 564.16275,799.33617 L 566.94067,771.0519 L 569.97113,750.59631 L 573.25412,730.89834 L 576.78966,710.19021 L 583.60819,692.26 L 591.18433,680.89579 L 581.33534,672.56203 L 575.77951,668.77396 L 572.24397,664.98588 z " id="path5544"/>
          <path id="path1981" d="M 572.47285,665.35699 L 570.83135,672.17552 L 551.25965,709.67744 L 537.62259,726.47122 L 523.60672,738.46678 L 504.54009,746.80054 L 492.92334,746.67427 L 478.4024,740.36082 L 469.18475,728.9966 L 464.63907,715.61208 L 463.62892,702.22756 L 464.00772,693.38873 L 468.1746,681.51943 L 469.94237,670.02895 L 460.09338,676.08986 L 449.36051,691.24215 L 442.66825,705.63683 L 436.60733,725.96615 L 430.29388,766.11971 L 428.02104,793.39383 L 424.23297,833.54739 L 424.73804,859.81136 L 427.26342,870.16542 L 434.08195,883.04487 L 447.97155,898.19716 L 463.12384,907.28853 L 479.03374,912.33929 L 501.76217,912.08675 L 522.4703,905.52076 L 538.63274,895.41924 L 549.99696,883.29741 L 559.84594,863.59943 L 562.11879,832.2847 L 564.39163,799.70728 L 567.16955,771.42301 L 570.20001,750.96742 L 573.483,731.26945 L 577.01854,710.56132 L 583.83707,692.63111 L 591.41321,681.2669 L 581.56422,672.93314 L 576.00839,669.14507 L 572.47285,665.35699 z " style="fill:url(#linearGradient13083);fill-opacity:1;fill-rule:evenodd;stroke:black;stroke-width:1px;stroke-linecap:butt;stroke-linejoin:miter;stroke-opacity:1"/>
          <path id="path1983" d="M 492.14285,768.79076 L 500,768.79076 L 501.42857,763.07647 L 499.28571,757.71933 L 491.07143,757.71933 L 489.28571,762.36218 L 492.14285,768.79076 z " style="fill:#4a4137;fill-opacity:1;fill-rule:evenodd;stroke:black;stroke-width:1px;stroke-linecap:butt;stroke-linejoin:miter;stroke-opacity:1"/>
          <path id="path1985" d="M 483.57143,782.71933 L 499.28571,783.07647 L 511.78571,787.00504 L 521.07143,794.86218 L 529.64285,805.57647 L 531.78571,811.6479 L 530.71428,854.50504 L 525.71428,863.43361 L 517.14285,874.50504 L 504.64285,883.07647 L 482.5,883.43361 L 467.14285,877.00504 L 456.78571,863.79076 L 451.07142,847.00504 L 453.21428,809.1479 L 461.07143,797.00504 L 472.14285,787.71933 L 483.57143,782.71933 z " style="fill:none;fill-rule:evenodd;stroke:black;stroke-width:1px;stroke-linecap:butt;stroke-linejoin:miter;stroke-opacity:1"/>
          <path id="path1987" d="M 483.60309,832.2924 L 487.13863,829.13567 L 487.13863,825.09506 L 483.9819,821.81207 L 480.3201,821.30699 L 476.65829,822.94849 L 474.89053,826.10521 L 476.78456,831.02971 L 481.58279,832.92374 L 483.60309,832.2924 z " style="fill:black;fill-opacity:1;fill-rule:evenodd;stroke:black;stroke-width:1px;stroke-linecap:butt;stroke-linejoin:miter;stroke-opacity:1"/>
          <path sodipodi:nodetypes="ccccccc" id="path1989" d="M 481.58279,823.07476 L 481.45652,827.49417 L 485.37086,827.62044 L 485.11832,829.00941 L 479.12054,828.94627 L 479.18368,823.07476 L 481.58279,823.07476 z " style="fill:#faf8ff;fill-opacity:1;fill-rule:evenodd;stroke:none;stroke-width:1px;stroke-linecap:butt;stroke-linejoin:miter;stroke-opacity:1"/>
          <path sodipodi:nodetypes="ccccccc" id="path2877" d="M 492.15344,823.83237 L 492.15344,829.26318 L 495.33998,829.26318 L 495.40925,830.58777 L 490.42162,830.45531 L 490.4909,823.8986 L 492.15344,823.83237 z " style="fill:black;fill-opacity:1;fill-rule:evenodd;stroke:none;stroke-width:1px;stroke-linecap:butt;stroke-linejoin:miter;stroke-opacity:1"/>
          <path id="path2879" d="M 501.72271,825.1582 L 500.83882,824.27431 L 497.74523,824.14804 L 496.4194,825.537 L 496.29314,829.38821 L 497.55583,830.77717 L 501.97524,830.90344 L 502.10151,827.93612 L 499.38673,827.68358 L 499.38673,828.69373 L 500.83882,828.94627 L 500.64942,829.57761 L 498.62911,829.51448 L 498.37657,825.66327 L 500.58628,825.66327 L 501.02823,826.16835 L 501.97524,826.16835 L 501.72271,825.1582 z " style="fill:black;fill-opacity:1;fill-rule:evenodd;stroke:none;stroke-width:1px;stroke-linecap:butt;stroke-linejoin:miter;stroke-opacity:1"/>
          <path id="path6439" d="M 591.07143,680.57647 L 596.25,685.75504 L 604.82143,698.96933 L 611.07143,709.32647 L 611.07143,712.8979 L 609.46428,726.46933 L 608.57143,742.00504 L 610.53571,756.11218 L 613.57143,782.00504 L 614.82143,800.75504 L 615.35714,813.07647 L 611.96428,803.25504 L 607.5,798.96933 L 602.14285,796.46933 L 593.57143,797.54076 L 589.10714,813.79076 L 588.21428,821.29076 L 584.28571,844.32647 L 582.85714,854.1479 L 580.17857,881.6479 L 575.35714,894.50504 L 569.28571,905.3979 L 561.78571,913.79076 L 551.07143,923.79076 L 531.07143,935.93361 L 510.35714,942.36219 L 482.14285,943.07647 L 463.57143,938.07647 L 445,928.07647 L 421.78571,905.21933 L 411.78571,880.57647 L 408.57142,862.36219 L 408.21428,808.07647 L 407.85714,797.71933 L 407.5,788.79076 L 400.35714,788.79076 L 397.14285,794.50504 L 392.14285,802.00504 L 394.28571,780.21933 L 402.5,762.36218 L 411.07142,741.6479 L 421.07142,719.1479 L 429.64285,709.1479 L 446.07142,692.71933 L 448.57142,690.93361 L 442.18684,705.89706 L 436.50473,725.72131 L 429.43366,766.00114 L 428.17097,786.583 L 427.16082,801.86155 L 425.39305,816.7613 L 423.87782,831.66105 L 424.25663,846.43453 L 424.13036,859.44025 L 427.28709,870.6782 L 434.23189,882.54749 L 447.61641,897.06843 L 462.64243,906.66488 L 478.80487,911.84191 L 501.02822,911.71564 L 522.3677,905.02338 L 539.16148,894.79559 L 550.14689,882.54749 L 559.36453,863.48086 L 560.87976,839.74227 L 562.52126,816.3825 L 563.91022,797.94721 L 567.06695,769.15787 L 570.34994,745.92436 L 573.50667,728.12042 L 576.91594,709.4326 L 581.71416,697.81584 L 583.48193,691.62866 L 591.07143,680.57647 z " style="fill:#172059;fill-opacity:1;fill-rule:evenodd;stroke:black;stroke-width:1px;stroke-linecap:butt;stroke-linejoin:miter;stroke-opacity:1"/>
          <path id="path7334" d="M 608.21428,799.68361 L 602.5,796.6479 L 594.10714,797.71933 L 589.46428,812.18361 L 584.28571,845.21933 L 581.78571,863.96933 L 580,882.00504 L 575.17857,894.50504 L 569.64285,905.75504 L 552.32143,922.8979 L 531.78571,935.75504 L 510,942.36219 L 481.96428,943.25504 L 463.75,937.71933 L 445.17857,928.07647 L 421.78571,905.04076 L 411.07143,881.6479 L 408.57143,862.18361 L 407.67857,788.96933 L 400,788.61218 L 398.92857,805.04076 L 393.03571,866.29076 L 397.85714,895.3979 L 408.75,913.79076 L 430.71428,936.46933 L 450.89285,947.00504 L 479.10714,954.32647 L 502.5,954.1479 L 529.82143,948.07647 L 552.67857,935.21933 L 571.25,916.11219 L 588.03571,879.68361 L 589.82143,857.71933 L 592.5,814.1479 L 594.46428,802.54076 L 600.35714,799.68361 L 608.75,800.93361 L 607.5,799.50504 L 608.21428,799.68361 z " style="fill:black;fill-opacity:1;fill-rule:evenodd;stroke:black;stroke-width:1px;stroke-linecap:butt;stroke-linejoin:miter;stroke-opacity:1"/>
          <path id="path10166" d="M 591.25,937.8979 L 615.35714,940.93361 L 616.42857,968.96933 L 616.78571,973.07647 L 615,975.21933 L 607.5,979.32647 L 598.03571,981.46933 L 591.96428,978.79076 L 580,978.25504 L 569.10714,972.18361 L 550,971.6479 L 540.35714,966.29076 L 569.28571,954.1479 L 591.25,937.8979 z " style="fill:#010002;fill-opacity:1;fill-rule:evenodd;stroke:black;stroke-width:1px;stroke-linecap:butt;stroke-linejoin:miter;stroke-opacity:1"/>
          <path id="path7336" d="M 612.39754,805.52336 L 611.63993,802.24036 L 609.61962,801.23021 L 600.14944,799.71498 L 594.97241,802.87171 L 593.07838,813.85712 L 591.05807,842.899 L 588.40642,879.76957 L 582.47177,892.64901 L 571.61263,915.88252 L 552.67227,935.70677 L 529.94384,948.45994 L 502.92226,954.64713 L 478.93114,955.1522 L 451.02567,947.57606 L 430.31755,936.59065 L 408.72554,914.49356 L 397.74013,895.67947 L 392.31056,865.87997 L 399.38162,790.49734 L 391.80548,801.60902 L 388.77502,820.42311 L 385.9971,848.45484 L 385.9971,860.32413 L 386.24964,874.59254 L 390.16398,906.79115 L 394.83594,915.12491 L 401.02312,925.73151 L 416.30168,944.67187 L 428.42351,954.39459 L 441.68176,962.85462 L 458.72809,969.67315 L 474.89053,973.08241 L 503.42734,972.57733 L 527.79727,969.67315 L 539.28775,966.26388 L 558.85946,955.40474 L 584.87089,933.05512 L 598.12914,909.4428 L 603.68498,881.03226 L 616.18562,882.16868 L 617.32204,877.11792 L 616.56442,845.67692 L 615.93308,820.17057 L 614.41785,813.22577 L 612.39754,805.52336 z " style="fill:#38354a;fill-opacity:1;fill-rule:evenodd;stroke:black;stroke-width:1px;stroke-linecap:butt;stroke-linejoin:miter;stroke-opacity:1"/>
          <path style="fill:#fefefe;fill-opacity:1;fill-rule:evenodd;stroke:black;stroke-width:1px;stroke-linecap:butt;stroke-linejoin:miter;stroke-opacity:1" d="M 611.1782,712.21052 L 621.27972,715.24097 L 619.25942,733.42372 L 625.82541,768.77906 L 638.95739,810.19531 L 648.04876,825.85268 L 652.59445,826.35775 L 653.6046,861.71309 L 645.52338,870.80447 L 639.96754,891.51259 L 637.94724,908.68519 L 634.91678,928.88824 L 629.86602,954.14205 L 627.84571,973.33495 L 620.26957,974.85018 L 615.72388,970.30449 L 615.21881,956.66743 L 615.21881,941.51514 L 582.89393,937.97961 L 597.14287,921.11219 L 606.78573,904.32647 L 613.57144,882.54076 L 615.89287,882.54076 L 616.42858,876.82647 L 615.7143,820.04076 L 614.28573,812.00504 L 613.92859,804.1479 L 613.92858,790.57647 L 611.25001,763.79076 L 608.03573,741.11218 L 611.1782,712.21052 z " id="path7342" sodipodi:nodetypes="ccccccccccccccccccccccccccccccc"/>
          <path sodipodi:nodetypes="ccccccccccccccccccccccccccccccc" id="path7340" d="M 611.89248,712.21052 L 621.994,715.24097 L 619.9737,733.42372 L 626.53969,768.77906 L 639.67167,810.19531 L 648.76304,825.85268 L 653.30873,826.35775 L 654.31888,861.71309 L 646.23766,870.80447 L 640.68182,891.51259 L 638.66152,908.68519 L 635.63106,928.88824 L 630.5803,954.14205 L 628.55999,973.33495 L 620.98385,974.85018 L 616.43816,970.30449 L 615.93309,956.66743 L 615.93309,941.51514 L 583.60821,937.97961 L 597.85715,921.11219 L 607.50001,904.32647 L 614.28572,882.54076 L 616.60715,882.54076 L 617.14286,876.82647 L 616.42858,820.04076 L 615.00001,812.00504 L 614.64287,804.1479 L 614.64286,790.57647 L 611.96429,763.79076 L 608.75001,741.11218 L 611.89248,712.21052 z " style="fill:url(#linearGradient13085);fill-opacity:1;fill-rule:evenodd;stroke:black;stroke-width:1px;stroke-linecap:butt;stroke-linejoin:miter;stroke-opacity:1"/>
          <path sodipodi:nodetypes="ccccccccccccc" id="path7338" d="M 539.9191,966.26388 L 554.31377,960.70804 L 569.21352,954.14206 L 591.18434,937.72707 L 601.28587,921.81717 L 608.10439,903.88696 L 613.15516,888.73467 L 614.16531,882.16868 L 604.06379,881.41107 L 596.74018,909.69534 L 585.37596,932.67631 L 559.36453,954.39459 L 539.9191,966.26388 z " style="fill:#e6e6e6;fill-opacity:1;fill-rule:evenodd;stroke:black;stroke-width:1px;stroke-linecap:butt;stroke-linejoin:miter;stroke-opacity:1"/>
          <path id="path8243" d="M 536.6361,966.51642 L 537.14118,972.57733 L 535.87849,978.89079 L 531.58534,984.9517 L 524.51427,987.98216 L 463.1475,985.70932 L 454.05613,980.15348 L 450.5206,973.84003 L 451.53075,967.0215 L 457.8442,970.05195 L 473.50157,973.33495 L 504.56376,972.82987 L 528.80742,969.0418 L 537.89879,966.51642 L 536.6361,966.51642 z " style="fill:#2e2a3a;fill-opacity:1;fill-rule:evenodd;stroke:black;stroke-width:1px;stroke-linecap:butt;stroke-linejoin:miter;stroke-opacity:1"/>
          <path id="path8245" d="M 395.21475,777.11282 L 420.21602,719.28158 L 428.29724,711.20036 L 423.49902,711.20036 L 413.65003,723.57473 L 405.31627,739.48463 L 399.00282,755.64707 L 394.96221,772.06205 L 395.21475,777.11282 z " style="fill:#231e3c;fill-opacity:1;fill-rule:evenodd;stroke:black;stroke-width:1px;stroke-linecap:butt;stroke-linejoin:miter;stroke-opacity:1"/>
          <path id="path9132" d="M 621.23638,715.24097 L 626.79222,716.7562 L 626.0346,725.3425 L 626.53968,737.71687 L 629.06506,753.87931 L 631.59044,769.28413 L 633.35821,783.17373 L 640.17674,799.58871 L 645.73258,811.96308 L 653.30872,820.0443 L 653.05618,826.10522 L 648.25796,825.85268 L 640.17674,810.70039 L 626.28714,768.27398 L 619.46861,733.67626 L 621.23638,715.24097 z " style="fill:#231e3c;fill-opacity:1;fill-rule:evenodd;stroke:black;stroke-width:1px;stroke-linecap:butt;stroke-linejoin:miter;stroke-opacity:1"/>
          <path sodipodi:nodetypes="ccccccccccccc" id="path9134" d="M 627.29729,717.00874 L 626.79222,726.10011 L 626.79222,737.46433 L 631.59044,768.52652 L 632.85313,780.14327 L 646.23765,811.458 L 652.80364,819.28669 L 653.8138,807.41739 L 653.8138,787.21434 L 650.78334,766.50621 L 643.45973,739.98971 L 634.36836,725.84757 L 627.29729,717.00874 z " style="fill:#fcfcfa;fill-opacity:1;fill-rule:evenodd;stroke:black;stroke-width:1px;stroke-linecap:butt;stroke-linejoin:miter;stroke-opacity:1"/>
          <path id="path9136" d="M 410.36703,937.97961 L 409.35688,943.28291 L 410.36703,950.85905 L 414.15511,959.95043 L 415.16526,963.99104 L 438.6513,966.76896 L 441.42922,962.98089 L 429.55993,954.39459 L 417.18556,945.30322 L 410.36703,937.97961 z " style="fill:black;fill-opacity:1;fill-rule:evenodd;stroke:black;stroke-width:1px;stroke-linecap:butt;stroke-linejoin:miter;stroke-opacity:1"/>
          <path sodipodi:nodetypes="ccccccccccc" id="path9138" d="M 413.65003,963.99104 L 402.79089,963.7385 L 397.48759,950.60652 L 393.69952,935.20169 L 392.68936,911.71564 L 400.51805,925.10016 L 409.35688,936.71692 L 409.35688,943.28291 L 410.1145,949.8489 L 412.38734,957.67758 L 413.65003,963.99104 z " style="fill:#38354a;fill-opacity:1;fill-rule:evenodd;stroke:black;stroke-width:1px;stroke-linecap:butt;stroke-linejoin:miter;stroke-opacity:1"/>
          <path sodipodi:nodetypes="ccccccccccccccc" id="path9140" d="M 402.28581,962.98089 L 392.9419,945.30322 L 388.14368,927.37301 L 384.35561,903.63442 L 383.34545,878.63315 L 385.21782,854.64202 L 385.6183,868.27908 L 386.37591,876.61284 L 387.6386,888.98721 L 389.40637,906.41234 L 392.68936,910.95803 L 393.19444,927.37301 L 393.44698,933.939 L 397.99266,949.34383 L 402.28581,962.98089 z " style="fill:#afb3c9;fill-opacity:1;fill-rule:evenodd;stroke:black;stroke-width:1px;stroke-linecap:butt;stroke-linejoin:miter;stroke-opacity:1"/>
          <path id="path9142" d="M 382.58784,876.3603 L 379.55738,882.9263 L 379.0523,894.79559 L 379.0523,911.46311 L 379.0523,925.85778 L 379.30484,938.73722 L 382.08276,948.08114 L 385.6183,956.91997 L 394.45713,962.72835 L 401.78074,963.99104 L 393.95205,947.07098 L 388.90129,929.14077 L 384.60814,903.38188 L 382.58784,876.3603 z " style="fill:#726c5c;fill-opacity:1;fill-rule:evenodd;stroke:black;stroke-width:1px;stroke-linecap:butt;stroke-linejoin:miter;stroke-opacity:1"/>
          <path id="path9144" d="M 654.31887,861.20802 L 659.87471,866.00624 L 653.05618,871.057 L 650.27826,886.46183 L 649.01557,903.63442 L 649.01557,927.37301 L 649.01557,945.05068 L 649.26811,955.90982 L 650.5308,962.47581 L 653.30872,966.26388 L 655.58156,968.78926 L 652.29857,974.09256 L 643.2072,978.63825 L 636.6412,977.37556 L 629.06506,968.28419 L 630.58029,954.14205 L 634.87344,928.88824 L 639.67166,893.78544 L 645.73258,870.80447 L 654.31887,861.20802 z " style="fill:#726c5c;fill-opacity:1;fill-rule:evenodd;stroke:black;stroke-width:1px;stroke-linecap:butt;stroke-linejoin:miter;stroke-opacity:1"/>
          <path id="path9146" d="M 655.70783,968.53672 L 650.40453,962.22327 L 649.14184,955.78355 L 649.39438,947.70233 L 649.26811,928.38316 L 649.26811,912.22072 L 649.14184,904.26577 L 649.89946,894.29051 L 650.15199,886.20929 L 653.05618,870.55193 L 660.00098,865.87997 L 661.01113,870.04685 L 662.27383,875.09761 L 663.28398,880.65345 L 664.16786,891.38632 L 664.54667,907.04369 L 662.90517,929.64585 L 662.7789,945.42948 L 661.89502,953.00563 L 657.72814,964.74865 L 655.70783,968.53672 z " style="fill:#cacae3;fill-opacity:1;fill-rule:evenodd;stroke:black;stroke-width:1px;stroke-linecap:butt;stroke-linejoin:miter;stroke-opacity:1"/>
          <path sodipodi:nodetypes="ccccsccccccc" id="path9148" d="M 662.90517,921.94344 L 663.41024,916.89268 L 662.02128,913.60968 L 659.4959,914.24102 C 659.4959,914.24102 657.98067,917.52402 657.98067,918.0291 C 657.98067,918.53417 657.4756,922.19598 657.4756,922.19598 L 657.22306,925.73151 L 657.34933,928.76197 L 658.23321,930.78227 L 660.12725,931.28735 L 662.40009,930.02466 L 662.90517,921.94344 z " style="fill:#434b81;fill-opacity:1;fill-rule:evenodd;stroke:none;stroke-width:1px;stroke-linecap:butt;stroke-linejoin:miter;stroke-opacity:1"/>
          <g transform="translate(47.30874,87.82124)" id="g11131">
            <path id="path10236" d="M 442.69935,568.49911 L 441.6892,576.07526 L 441.94174,585.16663 L 442.44681,592.74277 L 448.00265,597.03592 L 466.43794,598.04607 L 478.55977,594.76308 L 479.82246,587.43947 L 483.10545,577.59049 L 480.32753,570.01434 L 481.08515,536.93185 L 480.83261,530.61839 L 447.75011,530.36585 L 437.90113,532.13362 L 437.39605,545.2656 L 437.64859,555.61967 L 437.39605,566.47881 L 442.69935,568.49911 z " style="fill:#fefefe;fill-opacity:1;fill-rule:evenodd;stroke:black;stroke-width:1px;stroke-linecap:butt;stroke-linejoin:miter;stroke-opacity:1"/>
            <path style="fill:url(#linearGradient13087);fill-opacity:1;fill-rule:evenodd;stroke:black;stroke-width:1px;stroke-linecap:butt;stroke-linejoin:miter;stroke-opacity:1" d="M 442.44681,568.75165 L 441.43666,576.3278 L 441.6892,585.41917 L 442.19427,592.99531 L 447.75011,597.28846 L 466.1854,598.29861 L 478.30723,595.01562 L 479.56992,587.69201 L 482.85291,577.84303 L 480.07499,570.26688 L 480.83261,537.18439 L 480.58007,530.87093 L 447.49757,530.61839 L 437.64859,532.38616 L 437.14351,545.51814 L 437.39605,555.87221 L 437.14351,566.73135 L 442.44681,568.75165 z " id="path10234"/>
          </g>
          <path id="path11137" d="M 491.94429,617.99659 L 495.73236,591.48008 L 502.04582,572.79226 L 518.96587,543.2453 L 538.15877,524.0524 L 567.20065,503.84935 L 592.20193,495.51559 L 610.88975,495.76813 L 634.12326,503.59681 L 644.47732,518.7491 L 649.27555,537.18438 L 649.27555,545.2656 L 647.76032,557.38743 L 644.9824,572.53972 L 638.66895,588.19709 L 627.55727,604.10699 L 616.19305,612.69329 L 603.06107,619.51182 L 591.44432,623.55243 L 575.53441,623.80496 L 558.10928,620.01689 L 544.72476,610.42044 L 535.88593,597.03592 L 533.10801,586.17678 L 536.13846,553.59936 L 541.44176,523.54732 L 547.50268,511.67803 L 558.36182,489.45468 L 587.15117,417.98638 L 600.53569,345.00286 L 602.05092,298.03077 L 594.22224,242.21984 L 588.41386,229.3404 L 586.64609,227.57263 L 578.31233,240.95715 L 569.4735,251.56375 L 561.39228,238.17923 L 553.05852,231.86578 L 570.48365,207.87465 L 574.01918,195.75282 L 562.40243,193.73252 L 570.73619,187.6716 L 584.37325,184.13607 L 598.01031,186.40891 L 609.12199,195.24775 L 616.44559,205.60181 L 623.26412,219.74395 L 630.84027,246.00791 L 632.60803,259.89751 L 633.11311,270.25157 L 634.88088,291.96985 L 633.61818,313.18306 L 632.86057,343.2351 L 629.0725,361.1653 L 625.7895,393.23765 L 620.73874,412.68308 L 613.41513,441.47243 L 601.54584,472.53462 L 591.19178,496.02067 L 571.74634,545.2656 L 567.70573,560.16535 L 563.91766,571.52957 L 565.93796,582.89379 L 573.76665,590.21739 L 587.40371,591.73262 L 604.32376,579.35825 L 613.66767,558.90266 L 615.1829,541.73007 L 611.39483,532.89124 L 600.53569,530.36585 L 586.14102,535.41662 L 566.44304,550.31637 L 550.2806,566.98388 L 536.13846,581.88363 L 529.57247,596.78338 L 526.54201,612.69329 L 526.03694,619.00674 L 491.94429,617.99659 z " style="fill:#c3c4c9;fill-opacity:1;fill-rule:evenodd;stroke:black;stroke-width:1px;stroke-linecap:butt;stroke-linejoin:miter;stroke-opacity:1"/>
          <path sodipodi:nodetypes="ccccccccccccccccc" id="path11139" d="M 591.60714,495.57647 L 585.71429,496.29075 L 565.35714,502.8979 L 543.75,519.50504 L 540,523.61218 L 534.46429,554.86218 L 531.25,582.8979 L 532.85715,587.71932 L 534.64286,587.71933 L 539.10714,580.57647 L 566.60714,551.29075 L 570.17857,549.68361 L 571.42857,547.00504 L 577.85714,535.3979 L 586.07143,517.36218 L 593.21429,497.36218 L 591.60714,495.57647 z " style="fill:#c3c4c9;fill-opacity:1;fill-rule:evenodd;stroke:none;stroke-width:1px;stroke-linecap:butt;stroke-linejoin:miter;stroke-opacity:1"/>
          <path sodipodi:nodetypes="cccc" id="path12026" d="M 592.32143,495.21932 L 576.42857,499.86218 L 562.32143,507.18361 L 539.46429,522.8979" style="fill:none;fill-rule:evenodd;stroke:black;stroke-width:1px;stroke-linecap:butt;stroke-linejoin:miter;stroke-opacity:1"/>
          <path sodipodi:nodetypes="cccccccccc" id="path12028" d="M 533.39285,588.43361 L 541.96429,573.61218 L 555.17858,559.32647 L 572.32143,545.75504 L 585.17857,535.75504 L 585.17857,535.75504 L 585.17857,535.75504 L 585.71429,535.75504 L 585.89286,535.75504 L 585,535.75504" style="fill:none;fill-rule:evenodd;stroke:black;stroke-width:1px;stroke-linecap:butt;stroke-linejoin:miter;stroke-opacity:1"/>
        </g>
        <path style="fill:#b2b6b8;fill-opacity:1;fill-rule:evenodd;stroke:black;stroke-width:1px;stroke-linecap:butt;stroke-linejoin:miter;stroke-opacity:1" d="M 552.85714,232.71933 L 570.35714,208.43361 L 573.92857,195.57647 L 563.57143,193.07647 L 551.78572,193.43361 L 550,203.43361 L 550.35714,219.86218 L 552.85714,232.71933 z " id="path12067" sodipodi:nodetypes="cccccccc"/>
        <path sodipodi:nodetypes="cccccccccccccc" id="path12966" d="M 561.21937,237.21425 L 553.54079,231.67854 L 550.86222,236.67854 L 545.68365,245.96425 L 544.07651,256.14283 L 544.43365,272.21425 L 545.50508,283.28568 L 551.0408,290.42854 L 555.32651,293.99997 L 562.11222,288.99997 L 568.36222,277.92854 L 569.25508,263.99997 L 569.61222,250.78568 L 561.21937,237.21425 z " style="fill:#fefefe;fill-opacity:1;fill-rule:evenodd;stroke:black;stroke-width:1px;stroke-linecap:butt;stroke-linejoin:miter;stroke-opacity:1"/>
        <path style="fill:url(#linearGradient13089);fill-opacity:1;fill-rule:evenodd;stroke:black;stroke-width:1px;stroke-linecap:butt;stroke-linejoin:miter;stroke-opacity:1" d="M 561.21937,237.21424 L 553.54079,231.67853 L 550.86222,236.67853 L 545.68365,245.96424 L 544.07651,256.14282 L 544.43365,272.21424 L 545.50508,283.28567 L 551.0408,290.42853 L 555.32651,293.99996 L 562.11222,288.99996 L 568.36222,277.92853 L 569.25508,263.99996 L 569.61222,250.78567 L 561.21937,237.21424 z " id="path12069" sodipodi:nodetypes="cccccccccccccc"/>
        <path style="fill:#172059;fill-opacity:1;fill-rule:evenodd;stroke:black;stroke-width:1px;stroke-linecap:butt;stroke-linejoin:miter;stroke-opacity:1" d="M 552.5,232.36218 L 550.35714,218.79075 L 550,203.43361 L 552.14286,193.43361 L 556.42857,174.86218 L 571.07143,151.6479 L 577.5,145.21932 L 572.85714,138.79075 L 567.85714,138.79075 L 561.42857,139.1479 L 551.42857,147.36218 L 540.71429,158.07647 L 530,171.29075 L 530.26786,172.80861 L 530,171.91575 L 529.55357,172.63004 L 530.89286,173.07647 L 535.71429,171.29075 L 541.78572,171.6479 L 548.92857,177.71932 L 547.14286,190.21932 L 542.5,207.71932 L 542.85714,243.43361 L 542.14286,246.6479 L 527.14286,252.00504 L 518.21429,251.6479 L 512.85714,246.29075 L 512.85714,234.50504 L 506.42857,243.43361 L 503.92857,269.1479 L 505.35714,280.21932 L 512.85714,266.29075 L 522.5,263.43361 L 528.57143,262.00504 L 536.07143,270.93361 L 542.85714,281.29075 L 548.57143,289.50504 L 546.78572,283.07647 L 543.92857,254.50504 L 546.42857,246.6479 L 552.5,234.1479 L 552.5,232.36218 z " id="path12970" sodipodi:nodetypes="cccccccccccccccccccccccccccccccccccccccccc"/>
        <path style="fill:#172059;fill-opacity:1;fill-rule:evenodd;stroke:black;stroke-width:1px;stroke-linecap:butt;stroke-linejoin:miter;stroke-opacity:1" d="M 513.21429,265.93361 L 527.5,262.18361 L 535,270.75504 L 548.03572,288.96932 L 544.10715,297.89789 L 539.46429,308.79075 L 534.28572,318.43361 L 526.78572,311.46932 L 521.42858,308.61218 L 516.78572,308.25504 L 508.92858,308.43361 L 499.64286,309.50504 L 501.78572,297.36218 L 505.17858,281.11218 L 513.21429,265.93361 z " id="path12972"/>
        <path style="fill:#eceef3;fill-opacity:1;fill-rule:evenodd;stroke:black;stroke-width:1px;stroke-linecap:butt;stroke-linejoin:miter;stroke-opacity:1" d="M 516.78572,271.46933 L 522.5,270.3979 L 526.42858,271.29076 L 526.60715,275.04076 L 524.46429,278.43361 L 521.25,279.86218 L 516.96429,278.96933 L 513.92858,275.3979 L 516.78572,271.46933 z " id="path12974"/>
        <path style="fill:#100604;fill-opacity:1;fill-rule:evenodd;stroke:black;stroke-width:1px;stroke-linecap:butt;stroke-linejoin:miter;stroke-opacity:1" d="M 542.50001,246.46932 L 543.03572,241.11218 L 542.32144,208.07646 L 547.67858,190.75504 L 549.10715,178.07646 L 541.9643,171.82646 L 535.89286,171.20146 L 529.82144,172.00504 L 528.03572,176.64789 L 525.53572,180.57646 L 520.89287,187.71932 L 517.50001,197.00504 L 516.07144,209.50504 L 515.00001,219.14789 L 514.28572,226.29075 L 513.2143,234.68361 L 513.2143,246.82646 L 518.39287,252.18361 L 527.50001,252.89789 L 542.50001,246.46932 z " id="path12976" sodipodi:nodetypes="cccccccccccccccccccc"/>
        <path style="fill:#a9a7b2;fill-opacity:1;fill-rule:evenodd;stroke:black;stroke-width:1px;stroke-linecap:butt;stroke-linejoin:miter;stroke-opacity:1" d="M 538.92857,191.29075 L 541.96429,187.00504 L 538.75,181.64789 L 534.28571,178.07646 L 528.75,178.43361 L 524.82143,181.82646 L 523.21429,185.93361 L 522.85714,189.50504 L 524.64286,192.54075 L 523.21429,198.07646 L 521.96429,205.39789 L 520.17857,212.89789 L 519.82143,218.61218 L 522.5,220.93361 L 532.14286,220.93361 L 536.25,215.75504 L 537.32143,206.11218 L 538.92857,195.57646 L 538.92857,191.29075 z " id="path12978"/>
        <path style="fill:#c2c7c9;fill-opacity:1;fill-rule:evenodd;stroke:black;stroke-width:1px;stroke-linecap:butt;stroke-linejoin:miter;stroke-opacity:1" d="M 499.77297,309.39498 L 496.74251,322.02189 L 501.2882,316.21351 L 506.84404,314.69829 L 518.96587,316.21351 L 530.58263,324.54727 L 533.61308,327.57773 L 533.86562,318.48636 L 526.28948,311.66783 L 521.49125,309.14245 L 509.8745,308.38483 L 499.77297,309.39498 z " id="path12986" sodipodi:nodetypes="cccccccccccc"/>
        <path style="fill:#b6b9c5;fill-opacity:1;fill-rule:evenodd;stroke:black;stroke-width:1px;stroke-linecap:butt;stroke-linejoin:miter;stroke-opacity:1" d="M 496.74251,321.51682 L 495.22729,333.13357 L 500.02551,328.33534 L 506.08643,327.83027 L 513.66257,328.33534 L 518.71333,331.11326 L 521.99633,335.40641 L 523.51156,340.45718 L 528.56232,333.63865 L 533.36054,328.08281 L 530.58262,323.78965 L 518.71333,315.96098 L 507.60165,314.95082 L 501.79328,316.21351 L 496.74251,321.51682 z " id="path12988" sodipodi:nodetypes="ccccccccccccccc"/>
        <path id="path13002" d="M 522.67857,339.32646 L 327.85714,852.36218 L 312.14286,844.50504 L 300,840.93361 L 296.42857,841.6479 L 495,330.93361 L 498.39286,328.07647 L 503.92857,327.54075 L 511.78572,327.8979 L 518.75,330.93361 L 521.42857,335.3979 L 522.67857,339.32646 z " style="fill:white;fill-opacity:1;fill-rule:evenodd;stroke:black;stroke-width:1px;stroke-linecap:butt;stroke-linejoin:miter;stroke-opacity:1" sodipodi:nodetypes="cccccccccccc"/>
        <path style="fill:url(#linearGradient13091);fill-opacity:1;fill-rule:evenodd;stroke:black;stroke-width:1px;stroke-linecap:butt;stroke-linejoin:miter;stroke-opacity:1" d="M 523.21427,339.1479 L 327.85713,852.71933 L 312.14285,844.86219 L 299.99999,841.29076 L 296.42856,842.00505 L 494.99999,331.29076 L 498.39285,328.43362 L 503.92856,327.8979 L 511.78571,328.25505 L 518.39285,330.75505 L 521.60713,335.3979 L 523.21427,339.1479 z " id="path12990" sodipodi:nodetypes="cccccccccccc"/>
        <path style="fill:#c3c4c9;fill-opacity:1;fill-rule:evenodd;stroke:black;stroke-width:1px;stroke-linecap:butt;stroke-linejoin:miter;stroke-opacity:1" d="M 410.62701,539.20469 L 418.70823,539.20469 L 432.85036,542.23514 L 441.94174,548.29606 L 444.46712,550.82144 L 430.32498,598.29861 L 425.27422,602.33922 L 419.2133,599.81384 L 411.13208,594.76308 L 399.01025,590.72247 L 393.95949,588.70216 L 410.62701,539.20469 z " id="path13006"/>
      </g>
      <g transform="translate(507.8387,-17.60333)" id="g13063">
        <path style="fill:#cac9ce;fill-opacity:1;fill-rule:evenodd;stroke:black;stroke-width:1px;stroke-linecap:butt;stroke-linejoin:miter;stroke-opacity:1" d="M 233.92857,816.29075 L 213.92857,874.86218 L 227.5,871.64789 L 241.78571,874.86218 L 248.21429,884.50504 L 266.42857,827.36218 L 257.14286,823.43361 L 250,819.14789 L 238.57143,815.57646 L 233.92857,816.29075 z " id="path13059"/>
        <path style="fill:#c6c7c1;fill-opacity:1;fill-rule:evenodd;stroke:black;stroke-width:1px;stroke-linecap:butt;stroke-linejoin:miter;stroke-opacity:1" d="M 240,829.1479 L 237.85714,837.36219 L 233.92857,846.6479 L 231.07143,853.43361 L 226.07143,855.21933 L 220.71429,855.21933 L 218.92857,851.29076 L 225,828.43361 L 231.78571,824.50504 L 238.21429,827.00504 L 240,829.1479 z " id="path13061"/>
      </g>
      <path id="path13067" d="M 694.71689,880.96313 L 714.66741,881.21567 L 723.75878,862.52785 L 721.73847,857.47708 L 735.12299,853.94155 L 749.51767,857.22455 L 755.32605,866.821 L 754.06335,870.86161 L 752.54813,871.11414 L 746.48721,886.01389 L 693.95928,882.47836 L 694.71689,880.96313 z " style="fill:#cac9ce;fill-opacity:1;fill-rule:evenodd;stroke:black;stroke-width:1px;stroke-linecap:butt;stroke-linejoin:miter;stroke-opacity:1"/>
      <g transform="translate(499.0691,-114.87)" id="g13077">
        <path style="fill:#c6c5c0;fill-opacity:1;fill-rule:evenodd;stroke:black;stroke-width:1px;stroke-linecap:butt;stroke-linejoin:miter;stroke-opacity:1" d="M 248.46418,998.99359 L 251.2421,1003.2867 L 253.26241,1008.8426 L 255.53525,1026.5202 L 312.10379,1031.3185 L 314.1241,1037.8845 L 316.39694,1057.835 L 305.5378,1062.3807 L 289.88044,1069.7043 L 231.03905,1065.9162 L 150.22685,1059.0977 L 69.667181,1053.2893 L 70.677331,1038.8946 L 73.707791,1033.8438 L 92.395611,1020.7119 L 102.2446,1017.4289 L 151.74208,1018.439 L 166.89436,1006.0647 L 179.01619,997.47836 L 194.9261,997.47836 L 246.69641,1001.0139 L 248.46418,998.99359 z " id="path13069"/>
        <path style="fill:#a4a39f;fill-opacity:1;fill-rule:evenodd;stroke:black;stroke-width:1px;stroke-linecap:butt;stroke-linejoin:miter;stroke-opacity:1" d="M 127.08,1022.523 L 102.07872,1021.7654 L 98.29065,1024.5433 L 124.80715,1025.0483 L 127.08,1022.523 z " id="path13071"/>
        <path style="fill:none;fill-rule:evenodd;stroke:black;stroke-width:1px;stroke-linecap:butt;stroke-linejoin:miter;stroke-opacity:1" d="M 113.69548,1024.5433 L 116.97847,1022.2704 L 112.93786,1022.2704 L 109.65487,1024.5433 L 113.69548,1024.5433 z " id="path13073"/>
        <path style="fill:#c6c5c0;fill-opacity:1;fill-rule:evenodd;stroke:black;stroke-width:1px;stroke-linecap:butt;stroke-linejoin:miter;stroke-opacity:1" d="M 274.25642,1031.6541 L 284.35794,1028.6236 L 288.90363,1020.5424 L 288.39855,1013.4713 L 283.34779,1009.9358 L 272.74119,1009.9358 L 267.69042,1013.9764 L 260.11428,1022.5627 L 253.54829,1029.6338 L 259.10413,1031.149 L 274.25642,1031.6541 z " id="path13075"/>
      </g>
    </g>
  </g>
</svg>